<?xml version="1.0" encoding="UTF-8"?>
<svg version="1.1" xmlns="http://www.w3.org/2000/svg" width="450" height="450">
<path d="M0 0 C148.5 0 297 0 450 0 C450 148.5 450 297 450 450 C301.5 450 153 450 0 450 C0 301.5 0 153 0 0 Z " fill="#2E4636" transform="translate(0,0)"/>
<path d="M0 0 C1.17189377 -0.01921509 2.34378754 -0.03843018 3.55119324 -0.05822754 C4.81474136 -0.06672729 6.07828949 -0.07522705 7.38012695 -0.08398438 C8.6848848 -0.09538452 9.98964264 -0.10678467 11.3339386 -0.11853027 C14.09699046 -0.13951614 16.8599266 -0.15122221 19.62304688 -0.15820312 C23.14267704 -0.16913837 26.66074613 -0.21712605 30.17988873 -0.27414703 C33.55910094 -0.32065343 36.93811172 -0.32431625 40.31762695 -0.33398438 C41.57105392 -0.35867798 42.8244809 -0.38337158 44.1158905 -0.40881348 C52.00204332 -0.36895825 57.42016966 0.69229081 63.1809082 6.32226562 C65.47192383 9.52612305 65.47192383 9.52612305 67.0871582 12.92773438 C67.38279663 13.53361893 67.67843506 14.13950348 67.98303223 14.76374817 C68.90577468 16.66887832 69.79332719 18.58804614 70.6809082 20.50976562 C71.3036866 21.80705843 71.92867255 23.10329388 72.5559082 24.3984375 C79.27299058 38.36742839 79.27299058 38.36742839 78.1809082 44.32226562 C76.55761778 48.15859236 74.51344278 51.71899649 72.4309082 55.32226562 C71.89208008 56.28132813 71.35325195 57.24039063 70.7980957 58.22851562 C68.87001696 61.65203105 66.94265547 65.07239721 64.89770508 68.42773438 C62.86343172 71.79307548 62.1809082 73.26085538 62.1809082 77.32226562 C63.05231445 77.66257812 63.9237207 78.00289063 64.8215332 78.35351562 C73.33963677 81.8197569 80.69079012 85.914553 88.1809082 91.32226562 C89.30819336 92.09570312 89.30819336 92.09570312 90.45825195 92.88476562 C94.71466587 95.89121538 98.07987979 99.20773595 101.4074707 103.21289062 C102.58709888 104.6159726 103.81216479 105.98209761 105.0793457 107.30664062 C122.80618194 125.94434197 130.35398499 150.95663419 130.3684082 176.19726562 C130.3806543 177.31746094 130.39290039 178.43765625 130.40551758 179.59179688 C130.4175041 186.4400986 129.78283324 192.67187197 128.1809082 199.32226562 C127.9437207 200.50691406 127.7065332 201.6915625 127.4621582 202.91210938 C123.73229808 218.89455999 115.3905342 232.64824715 105.1809082 245.32226562 C104.5209082 246.31226563 103.8609082 247.30226563 103.1809082 248.32226562 C102.5209082 248.32226562 101.8609082 248.32226562 101.1809082 248.32226562 C100.8509082 249.31226563 100.5209082 250.30226563 100.1809082 251.32226562 C99.5209082 251.32226562 98.8609082 251.32226562 98.1809082 251.32226562 C98.1809082 251.98226562 98.1809082 252.64226562 98.1809082 253.32226562 C85.27408152 264.97371707 70.68315798 273.00930892 54.1809082 278.32226562 C53.42737061 278.59151855 52.67383301 278.86077148 51.89746094 279.13818359 C43.69969979 281.7824197 35.63435413 281.84674737 27.10449219 281.82324219 C24.64632329 281.82227659 22.19135796 281.86387115 19.73364258 281.90820312 C-7.75919809 282.11683563 -32.18956246 269.60098387 -51.68237305 250.61132812 C-61.4415161 240.65670147 -68.14296525 228.95394449 -73.8190918 216.32226562 C-74.23932617 215.40703125 -74.65956055 214.49179687 -75.0925293 213.54882812 C-80.22348379 201.62803912 -81.40007326 189.51707656 -81.3190918 176.69726562 C-81.31732941 175.95036469 -81.31556702 175.20346375 -81.31375122 174.43392944 C-81.25106819 162.50293946 -80.28375559 151.48530224 -75.8190918 140.32226562 C-75.5514502 139.64728027 -75.28380859 138.97229492 -75.00805664 138.27685547 C-63.23541894 109.51079111 -42.4624747 90.23374813 -14.8190918 77.32226562 C-14.1590918 76.99226563 -13.4990918 76.66226563 -12.8190918 76.32226562 C-14.09020389 72.16660401 -15.64984805 68.57002008 -17.82299805 64.81054688 C-18.39856445 63.80572266 -18.97413086 62.80089844 -19.56713867 61.765625 C-20.1659082 60.73244141 -20.76467773 59.69925781 -21.3815918 58.63476562 C-22.57272841 56.56970418 -23.76163758 54.50335586 -24.94799805 52.43554688 C-25.47466064 51.52587158 -26.00132324 50.61619629 -26.54394531 49.67895508 C-28.9132427 45.30008706 -29.399926 41.22305423 -28.8190918 36.32226562 C-27.75056199 33.77598182 -26.71725252 31.65993117 -25.3190918 29.32226562 C-24.58360953 28.02675549 -23.85062197 26.72982655 -23.11987305 25.43164062 C-22.74040527 24.76455078 -22.3609375 24.09746094 -21.9699707 23.41015625 C-19.64932703 19.20011282 -17.59557732 14.84962821 -15.5222168 10.51367188 C-11.87912447 3.06120499 -8.42586224 0.11172687 0 0 Z " fill="#D2AE37" transform="translate(203.819091796875,91.677734375)"/>
<path d="M0 0 C21.77464489 -0.23762013 39.00977794 5.55295077 55.04882812 20.63085938 C67.99721953 33.57925078 73.69797751 50.21953273 73.75 68.14453125 C73.69396625 88.34820179 67.56551553 104.42552768 53.5 119.08203125 C38.72422924 133.46964691 20.30801244 138.41488765 0.2109375 138.234375 C-18.06062041 137.48427946 -33.40160427 129.57416736 -46.07470703 116.64550781 C-58.81661265 102.66826156 -64.06626213 87.2738455 -63.875 68.51953125 C-63.88660156 67.37806641 -63.89820313 66.23660156 -63.91015625 65.06054688 C-63.847161 46.67643453 -55.93252424 31.63446957 -43.12109375 18.67578125 C-31.08607203 7.37529137 -16.61532964 0.38942179 0 0 Z " fill="#2E4636" transform="translate(223.5,198.91796875)"/>
</svg>
